<svg id="mermaid-1595244662056" width="837.5" xmlns="http://www.w3.org/2000/svg" height="404" viewBox="-10 -10 565 384"><style>#mermaid-1595244662056 .label{font-family:'trebuchet ms', verdana, arial;font-family:var(--mermaid-font-family);color:#333}#mermaid-1595244662056 .label text{fill:#333}#mermaid-1595244662056 .node rect,#mermaid-1595244662056 .node circle,#mermaid-1595244662056 .node ellipse,#mermaid-1595244662056 .node polygon,#mermaid-1595244662056 .node path{fill:#ECECFF;stroke:#9370db;stroke-width:1px}#mermaid-1595244662056 .node .label{text-align:center}#mermaid-1595244662056 .node.clickable{cursor:pointer}#mermaid-1595244662056 .arrowheadPath{fill:#333}#mermaid-1595244662056 .edgePath .path{stroke:#333;stroke-width:1.5px}#mermaid-1595244662056 .edgeLabel{background-color:#e8e8e8;text-align:center}#mermaid-1595244662056 .cluster rect{fill:#ffffde;stroke:#aa3;stroke-width:1px}#mermaid-1595244662056 .cluster text{fill:#333}#mermaid-1595244662056 div.mermaidTooltip{position:absolute;text-align:center;max-width:200px;padding:2px;font-family:'trebuchet ms', verdana, arial;font-family:var(--mermaid-font-family);font-size:12px;background:#ffffde;border:1px solid #aa3;border-radius:2px;pointer-events:none;z-index:100}#mermaid-1595244662056 .actor{stroke:#ccf;fill:#ECECFF}#mermaid-1595244662056 text.actor{fill:#000;stroke:none}#mermaid-1595244662056 .actor-line{stroke:grey}#mermaid-1595244662056 .messageLine0{stroke-width:1.5;stroke-dasharray:'2 2';stroke:#333}#mermaid-1595244662056 .messageLine1{stroke-width:1.5;stroke-dasharray:'2 2';stroke:#333}#mermaid-1595244662056 #arrowhead{fill:#333}#mermaid-1595244662056 .sequenceNumber{fill:#fff}#mermaid-1595244662056 #sequencenumber{fill:#333}#mermaid-1595244662056 #crosshead path{fill:#333 !important;stroke:#333 !important}#mermaid-1595244662056 .messageText{fill:#333;stroke:none}#mermaid-1595244662056 .labelBox{stroke:#ccf;fill:#ECECFF}#mermaid-1595244662056 .labelText{fill:#000;stroke:none}#mermaid-1595244662056 .loopText{fill:#000;stroke:none}#mermaid-1595244662056 .loopLine{stroke-width:2;stroke-dasharray:'2 2';stroke:#ccf}#mermaid-1595244662056 .note{stroke:#aa3;fill:#fff5ad}#mermaid-1595244662056 .noteText{fill:black;stroke:none;font-family:'trebuchet ms', verdana, arial;font-family:var(--mermaid-font-family);font-size:14px}#mermaid-1595244662056 .activation0{fill:#f4f4f4;stroke:#666}#mermaid-1595244662056 .activation1{fill:#f4f4f4;stroke:#666}#mermaid-1595244662056 .activation2{fill:#f4f4f4;stroke:#666}#mermaid-1595244662056 .mermaid-main-font{font-family:"trebuchet ms", verdana, arial;font-family:var(--mermaid-font-family)}#mermaid-1595244662056 .section{stroke:none;opacity:0.2}#mermaid-1595244662056 .section0{fill:rgba(102,102,255,0.49)}#mermaid-1595244662056 .section2{fill:#fff400}#mermaid-1595244662056 .section1,#mermaid-1595244662056 .section3{fill:#fff;opacity:0.2}#mermaid-1595244662056 .sectionTitle0{fill:#333}#mermaid-1595244662056 .sectionTitle1{fill:#333}#mermaid-1595244662056 .sectionTitle2{fill:#333}#mermaid-1595244662056 .sectionTitle3{fill:#333}#mermaid-1595244662056 .sectionTitle{text-anchor:start;font-size:11px;text-height:14px;font-family:'trebuchet ms', verdana, arial;font-family:var(--mermaid-font-family)}#mermaid-1595244662056 .grid .tick{stroke:#d3d3d3;opacity:0.8;shape-rendering:crispEdges}#mermaid-1595244662056 .grid .tick text{font-family:'trebuchet ms', verdana, arial;font-family:var(--mermaid-font-family)}#mermaid-1595244662056 .grid path{stroke-width:0}#mermaid-1595244662056 .today{fill:none;stroke:red;stroke-width:2px}#mermaid-1595244662056 .task{stroke-width:2}#mermaid-1595244662056 .taskText{text-anchor:middle;font-family:'trebuchet ms', verdana, arial;font-family:var(--mermaid-font-family)}#mermaid-1595244662056 .taskText:not([font-size]){font-size:11px}#mermaid-1595244662056 .taskTextOutsideRight{fill:#000;text-anchor:start;font-size:11px;font-family:'trebuchet ms', verdana, arial;font-family:var(--mermaid-font-family)}#mermaid-1595244662056 .taskTextOutsideLeft{fill:#000;text-anchor:end;font-size:11px}#mermaid-1595244662056 .task.clickable{cursor:pointer}#mermaid-1595244662056 .taskText.clickable{cursor:pointer;fill:#003163 !important;font-weight:bold}#mermaid-1595244662056 .taskTextOutsideLeft.clickable{cursor:pointer;fill:#003163 !important;font-weight:bold}#mermaid-1595244662056 .taskTextOutsideRight.clickable{cursor:pointer;fill:#003163 !important;font-weight:bold}#mermaid-1595244662056 .taskText0,#mermaid-1595244662056 .taskText1,#mermaid-1595244662056 .taskText2,#mermaid-1595244662056 .taskText3{fill:#fff}#mermaid-1595244662056 .task0,#mermaid-1595244662056 .task1,#mermaid-1595244662056 .task2,#mermaid-1595244662056 .task3{fill:#8a90dd;stroke:#534fbc}#mermaid-1595244662056 .taskTextOutside0,#mermaid-1595244662056 .taskTextOutside2{fill:#000}#mermaid-1595244662056 .taskTextOutside1,#mermaid-1595244662056 .taskTextOutside3{fill:#000}#mermaid-1595244662056 .active0,#mermaid-1595244662056 .active1,#mermaid-1595244662056 .active2,#mermaid-1595244662056 .active3{fill:#bfc7ff;stroke:#534fbc}#mermaid-1595244662056 .activeText0,#mermaid-1595244662056 .activeText1,#mermaid-1595244662056 .activeText2,#mermaid-1595244662056 .activeText3{fill:#000 !important}#mermaid-1595244662056 .done0,#mermaid-1595244662056 .done1,#mermaid-1595244662056 .done2,#mermaid-1595244662056 .done3{stroke:grey;fill:#d3d3d3;stroke-width:2}#mermaid-1595244662056 .doneText0,#mermaid-1595244662056 .doneText1,#mermaid-1595244662056 .doneText2,#mermaid-1595244662056 .doneText3{fill:#000 !important}#mermaid-1595244662056 .crit0,#mermaid-1595244662056 .crit1,#mermaid-1595244662056 .crit2,#mermaid-1595244662056 .crit3{stroke:#f88;fill:red;stroke-width:2}#mermaid-1595244662056 .activeCrit0,#mermaid-1595244662056 .activeCrit1,#mermaid-1595244662056 .activeCrit2,#mermaid-1595244662056 .activeCrit3{stroke:#f88;fill:#bfc7ff;stroke-width:2}#mermaid-1595244662056 .doneCrit0,#mermaid-1595244662056 .doneCrit1,#mermaid-1595244662056 .doneCrit2,#mermaid-1595244662056 .doneCrit3{stroke:#f88;fill:#d3d3d3;stroke-width:2;cursor:pointer;shape-rendering:crispEdges}#mermaid-1595244662056 .milestone{transform:rotate(45deg) scale(0.8, 0.8)}#mermaid-1595244662056 .milestoneText{font-style:italic}#mermaid-1595244662056 .doneCritText0,#mermaid-1595244662056 .doneCritText1,#mermaid-1595244662056 .doneCritText2,#mermaid-1595244662056 .doneCritText3{fill:#000 !important}#mermaid-1595244662056 .activeCritText0,#mermaid-1595244662056 .activeCritText1,#mermaid-1595244662056 .activeCritText2,#mermaid-1595244662056 .activeCritText3{fill:#000 !important}#mermaid-1595244662056 .titleText{text-anchor:middle;font-size:18px;fill:#000;font-family:'trebuchet ms', verdana, arial;font-family:var(--mermaid-font-family)}#mermaid-1595244662056 g.classGroup text{fill:#9370db;stroke:none;font-family:'trebuchet ms', verdana, arial;font-family:var(--mermaid-font-family);font-size:10px}#mermaid-1595244662056 g.classGroup text .title{font-weight:bolder}#mermaid-1595244662056 g.clickable{cursor:pointer}#mermaid-1595244662056 g.classGroup rect{fill:#ECECFF;stroke:#9370db}#mermaid-1595244662056 g.classGroup line{stroke:#9370db;stroke-width:1}#mermaid-1595244662056 .classLabel .box{stroke:none;stroke-width:0;fill:#ECECFF;opacity:0.5}#mermaid-1595244662056 .classLabel .label{fill:#9370db;font-size:10px}#mermaid-1595244662056 .relation{stroke:#9370db;stroke-width:1;fill:none}#mermaid-1595244662056 .dashed-line{stroke-dasharray:3}#mermaid-1595244662056 #compositionStart{fill:#9370db;stroke:#9370db;stroke-width:1}#mermaid-1595244662056 #compositionEnd{fill:#9370db;stroke:#9370db;stroke-width:1}#mermaid-1595244662056 #aggregationStart{fill:#ECECFF;stroke:#9370db;stroke-width:1}#mermaid-1595244662056 #aggregationEnd{fill:#ECECFF;stroke:#9370db;stroke-width:1}#mermaid-1595244662056 #dependencyStart{fill:#9370db;stroke:#9370db;stroke-width:1}#mermaid-1595244662056 #dependencyEnd{fill:#9370db;stroke:#9370db;stroke-width:1}#mermaid-1595244662056 #extensionStart{fill:#9370db;stroke:#9370db;stroke-width:1}#mermaid-1595244662056 #extensionEnd{fill:#9370db;stroke:#9370db;stroke-width:1}#mermaid-1595244662056 .commit-id,#mermaid-1595244662056 .commit-msg,#mermaid-1595244662056 .branch-label{fill:lightgrey;color:lightgrey;font-family:'trebuchet ms', verdana, arial;font-family:var(--mermaid-font-family)}#mermaid-1595244662056 .pieTitleText{text-anchor:middle;font-size:25px;fill:#000;font-family:'trebuchet ms', verdana, arial;font-family:var(--mermaid-font-family)}#mermaid-1595244662056 .slice{font-family:'trebuchet ms', verdana, arial;font-family:var(--mermaid-font-family)}#mermaid-1595244662056 g.stateGroup text{fill:#9370db;stroke:none;font-size:10px;font-family:'trebuchet ms', verdana, arial;font-family:var(--mermaid-font-family)}#mermaid-1595244662056 g.stateGroup text{fill:#9370db;stroke:none;font-size:10px}#mermaid-1595244662056 g.stateGroup .state-title{font-weight:bolder;fill:#000}#mermaid-1595244662056 g.stateGroup rect{fill:#ECECFF;stroke:#9370db}#mermaid-1595244662056 g.stateGroup line{stroke:#9370db;stroke-width:1}#mermaid-1595244662056 .transition{stroke:#9370db;stroke-width:1;fill:none}#mermaid-1595244662056 .stateGroup .composit{fill:white;border-bottom:1px}#mermaid-1595244662056 .stateGroup .alt-composit{fill:#e0e0e0;border-bottom:1px}#mermaid-1595244662056 .state-note{stroke:#aa3;fill:#fff5ad}#mermaid-1595244662056 .state-note text{fill:black;stroke:none;font-size:10px}#mermaid-1595244662056 .stateLabel .box{stroke:none;stroke-width:0;fill:#ECECFF;opacity:0.5}#mermaid-1595244662056 .stateLabel text{fill:#000;font-size:10px;font-weight:bold;font-family:'trebuchet ms', verdana, arial;font-family:var(--mermaid-font-family)}:root{--mermaid-font-family: '"trebuchet ms", verdana, arial';--mermaid-font-family: "Comic Sans MS", "Comic Sans", cursive}

:root { --mermaid-font-family: "trebuchet ms", verdana, arial;}</style><style>#mermaid-1595244662056 {
    color: rgb(0, 0, 0);
    font: 16px "trebuchet ms", verdana, arial;
  }</style><g></g><defs><marker id="extensionStart" class="extension" refX="0" refY="7" markerWidth="190" markerHeight="240" orient="auto"><path d="M 1,7 L18,13 V 1 Z"></path></marker></defs><defs><marker id="extensionEnd" refX="19" refY="7" markerWidth="20" markerHeight="28" orient="auto"><path d="M 1,1 V 13 L18,7 Z"></path></marker></defs><defs><marker id="compositionStart" class="extension" refX="0" refY="7" markerWidth="190" markerHeight="240" orient="auto"><path d="M 18,7 L9,13 L1,7 L9,1 Z"></path></marker></defs><defs><marker id="compositionEnd" refX="19" refY="7" markerWidth="20" markerHeight="28" orient="auto"><path d="M 18,7 L9,13 L1,7 L9,1 Z"></path></marker></defs><defs><marker id="aggregationStart" class="extension" refX="0" refY="7" markerWidth="190" markerHeight="240" orient="auto"><path d="M 18,7 L9,13 L1,7 L9,1 Z"></path></marker></defs><defs><marker id="aggregationEnd" refX="19" refY="7" markerWidth="20" markerHeight="28" orient="auto"><path d="M 18,7 L9,13 L1,7 L9,1 Z"></path></marker></defs><defs><marker id="dependencyStart" class="extension" refX="0" refY="7" markerWidth="190" markerHeight="240" orient="auto"><path d="M 5,7 L9,13 L1,7 L9,1 Z"></path></marker></defs><defs><marker id="dependencyEnd" refX="19" refY="7" markerWidth="20" markerHeight="28" orient="auto"><path d="M 18,7 L9,13 L14,7 L9,1 Z"></path></marker></defs><g id="classid-Class01-0" class="classGroup " transform="translate(14.5,0 )"><rect x="0" y="0" width="61" height="77"></rect><text y="15" x="0"><tspan class="title" x="12">Class01</tspan></text><line x1="0" y1="24" y2="24" x2="61"></line><text x="5" y="34" fill="white" class="classText"><tspan x="5">int chimp</tspan><tspan x="5" dy="10">int gorilla</tspan></text><line x1="0" y1="53" y2="53" x2="61"></line><text x="5" y="68" fill="white" class="classText"><tspan x="5">size()</tspan></text></g><g id="classid-AveryLongClass-1" class="classGroup " transform="translate(0,143 )"><rect x="0" y="0" width="90" height="35"></rect><text y="15" x="0"><tspan class="title" x="5">AveryLongClass</tspan></text><line x1="0" y1="24" y2="24" x2="90"></line><text x="5" y="34" fill="white" class="classText"></text><line x1="0" y1="29" y2="29" x2="90"></line><text x="5" y="44" fill="white" class="classText"></text></g><g id="classid-Class03-2" class="classGroup " transform="translate(140,21 )"><rect x="0" y="0" width="47" height="35"></rect><text y="15" x="0"><tspan class="title" x="5">Class03</tspan></text><line x1="0" y1="24" y2="24" x2="47"></line><text x="5" y="34" fill="white" class="classText"></text><line x1="0" y1="29" y2="29" x2="47"></line><text x="5" y="44" fill="white" class="classText"></text></g><g id="classid-Class04-3" class="classGroup " transform="translate(140,143 )"><rect x="0" y="0" width="47" height="35"></rect><text y="15" x="0"><tspan class="title" x="5">Class04</tspan></text><line x1="0" y1="24" y2="24" x2="47"></line><text x="5" y="34" fill="white" class="classText"></text><line x1="0" y1="29" y2="29" x2="47"></line><text x="5" y="44" fill="white" class="classText"></text></g><g id="classid-Class05-4" class="classGroup " transform="translate(237,21 )"><rect x="0" y="0" width="47" height="35"></rect><text y="15" x="0"><tspan class="title" x="5">Class05</tspan></text><line x1="0" y1="24" y2="24" x2="47"></line><text x="5" y="34" fill="white" class="classText"></text><line x1="0" y1="29" y2="29" x2="47"></line><text x="5" y="44" fill="white" class="classText"></text></g><g id="classid-Class06-5" class="classGroup " transform="translate(237,143 )"><rect x="0" y="0" width="47" height="35"></rect><text y="15" x="0"><tspan class="title" x="5">Class06</tspan></text><line x1="0" y1="24" y2="24" x2="47"></line><text x="5" y="34" fill="white" class="classText"></text><line x1="0" y1="29" y2="29" x2="47"></line><text x="5" y="44" fill="white" class="classText"></text></g><g id="classid-Class07-6" class="classGroup " transform="translate(426,127 )"><rect x="0" y="0" width="119" height="67"></rect><text y="15" x="0"><tspan class="title" x="41">Class07</tspan></text><line x1="0" y1="24" y2="24" x2="119"></line><text x="5" y="34" fill="white" class="classText"><tspan x="5">Object[] elementData</tspan></text><line x1="0" y1="43" y2="43" x2="119"></line><text x="5" y="58" fill="white" class="classText"><tspan x="5">equals()</tspan></text></g><g id="classid-Class08-7" class="classGroup " transform="translate(462,244 )"><rect x="0" y="0" width="47" height="35"></rect><text y="15" x="0"><tspan class="title" x="5">Class08</tspan></text><line x1="0" y1="24" y2="24" x2="47"></line><text x="5" y="34" fill="white" class="classText"></text><line x1="0" y1="29" y2="29" x2="47"></line><text x="5" y="44" fill="white" class="classText"></text></g><g id="classid-Class09-8" class="classGroup " transform="translate(341.5,21 )"><rect x="0" y="0" width="47" height="35"></rect><text y="15" x="0"><tspan class="title" x="5">Class09</tspan></text><line x1="0" y1="24" y2="24" x2="47"></line><text x="5" y="34" fill="white" class="classText"></text><line x1="0" y1="29" y2="29" x2="47"></line><text x="5" y="44" fill="white" class="classText"></text></g><g id="classid-C2-9" class="classGroup " transform="translate(410.5,329 )"><rect x="0" y="0" width="22" height="35"></rect><text y="15" x="0"><tspan class="title" x="5">C2</tspan></text><line x1="0" y1="24" y2="24" x2="22"></line><text x="5" y="34" fill="white" class="classText"></text><line x1="0" y1="29" y2="29" x2="22"></line><text x="5" y="44" fill="white" class="classText"></text></g><g id="classid-C3-10" class="classGroup " transform="translate(354,143 )"><rect x="0" y="0" width="22" height="35"></rect><text y="15" x="0"><tspan class="title" x="5">C3</tspan></text><line x1="0" y1="24" y2="24" x2="22"></line><text x="5" y="34" fill="white" class="classText"></text><line x1="0" y1="29" y2="29" x2="22"></line><text x="5" y="44" fill="white" class="classText"></text></g><path d="M45,77L45,81.16666666666667C45,85.33333333333333,45,93.66666666666667,45,104.66666666666667C45,115.66666666666667,45,129.33333333333334,45,136.16666666666666L45,143" id="edge0" class="relation" marker-start="url(#extensionStart)"></path><g class="classLabel"><rect class="box" x="32" y="96.5" width="26" height="19"></rect><text class="label" x="45" y="110.00000000000001" fill="red" text-anchor="middle">Cool</text></g><path d="M163.5,56L163.5,63.666666666666664C163.5,71.33333333333333,163.5,86.66666666666667,163.5,101.16666666666667C163.5,115.66666666666667,163.5,129.33333333333334,163.5,136.16666666666666L163.5,143" id="edge1" class="relation" marker-start="url(#compositionStart)"></path><path d="M260.5,56L260.5,63.666666666666664C260.5,71.33333333333333,260.5,86.66666666666667,260.5,101.16666666666667C260.5,115.66666666666667,260.5,129.33333333333334,260.5,136.16666666666666L260.5,143" id="edge2" class="relation" marker-start="url(#aggregationStart)"></path><path d="M485.5,194L485.5,198.16666666666666C485.5,202.33333333333334,485.5,210.66666666666666,485.5,219C485.5,227.33333333333334,485.5,235.66666666666666,485.5,239.83333333333334L485.5,244" id="edge3" class="relation dashed-line"></path><path d="M352.3228346456693,56L346.7690288713911,63.666666666666664C341.21522309711287,71.33333333333333,330.1076115485564,86.66666666666667,324.5538057742782,104.08333333333333C319,121.5,319,141,319,160.5C319,180,319,199.5,319,216.33333333333334C319,233.16666666666666,319,247.33333333333334,319,261.5C319,275.6666666666667,319,289.8333333333333,334.25,303.239837398374C349.5,316.6463414634147,380,329.2926829268293,395.25,335.6158536585366L410.5,341.9390243902439" id="edge4" class="relation" marker-end="url(#dependencyEnd)"></path><g class="classLabel"><rect class="box" x="287" y="210.625" width="65" height="19.015625"></rect><text class="label" x="319" y="224.12605584984226" fill="red" text-anchor="middle">Where am i?</text></g><path d="M365,56L365,63.666666666666664C365,71.33333333333333,365,86.66666666666667,365,101.16666666666667C365,115.66666666666667,365,129.33333333333334,365,136.16666666666666L365,143" id="edge5" class="relation" marker-end="url(#compositionEnd)"></path><path d="M388.5,50.88381742738589L404.6666666666667,59.403181189488244C420.8333333333333,67.9225449515906,453.1666666666667,84.9612724757953,469.3333333333333,97.64730290456431C485.5,110.33333333333333,485.5,118.66666666666667,485.5,122.83333333333333L485.5,127" id="edge6" class="relation" marker-end="url(#extensionEnd)"></path><path d="M485.5,279L485.5,283.1666666666667C485.5,287.3333333333333,485.5,295.6666666666667,476.6666666666667,305.69921875C467.8333333333333,315.7317708333333,450.1666666666667,327.4635416666667,441.3333333333333,333.3294270833333L432.5,339.1953125" id="edge7" class="relation" marker-start="url(#dependencyStart)" marker-end="url(#dependencyEnd)"></path><g class="classLabel"><rect class="box" x="442.90625" y="301.171875" width="53.015625" height="19.015625"></rect><text class="label" x="469.4131275137554" y="314.6826887603968" fill="red" text-anchor="middle">Cool label</text></g></svg>