<?xml version="1.0" encoding="UTF-8" standalone="no"?><svg xmlns="http://www.w3.org/2000/svg" xmlns:xlink="http://www.w3.org/1999/xlink" contentScriptType="application/ecmascript" contentStyleType="text/css" height="269px" preserveAspectRatio="none" style="width:313px;height:269px;" version="1.1" viewBox="0 0 313 269" width="313px" zoomAndPan="magnify"><defs><filter height="300%" id="f1hg58kfrprehi" width="300%" x="-1" y="-1"><feGaussianBlur result="blurOut" stdDeviation="2.0"/><feColorMatrix in="blurOut" result="blurOut2" type="matrix" values="0 0 0 0 0 0 0 0 0 0 0 0 0 0 0 0 0 0 .4 0"/><feOffset dx="4.0" dy="4.0" in="blurOut2" result="blurOut3"/><feBlend in="SourceGraphic" in2="blurOut3" mode="normal"/></filter></defs><g><!--MD5=[111002b242a260edbcaabc3e471064d0]
cluster checkout--><rect fill="#FFFFFF" filter="url(#f1hg58kfrprehi)" height="245" style="stroke: #000000; stroke-width: 1.5;" width="116" x="109" y="7"/><text fill="#000000" font-family="sans-serif" font-size="14" font-weight="bold" lengthAdjust="spacingAndGlyphs" textLength="63" x="135.5" y="22.9999">checkout</text><ellipse cx="166.8909" cy="138.8793" fill="#F8F8F8" filter="url(#f1hg58kfrprehi)" rx="41.8909" ry="14.8793" style="stroke: #383838; stroke-width: 1.5;"/><text fill="#000000" font-family="sans-serif" font-size="14" lengthAdjust="spacingAndGlyphs" textLength="55" x="139.3909" y="143.7793">checkout</text><ellipse cx="166.9767" cy="56.8793" fill="#F8F8F8" filter="url(#f1hg58kfrprehi)" rx="40.4767" ry="14.8793" style="stroke: #383838; stroke-width: 1.5;"/><text fill="#000000" font-family="sans-serif" font-size="14" lengthAdjust="spacingAndGlyphs" textLength="53" x="140.4767" y="61.7793">payment</text><ellipse cx="166.8848" cy="220.8793" fill="#F8F8F8" filter="url(#f1hg58kfrprehi)" rx="21.3848" ry="14.8793" style="stroke: #383838; stroke-width: 1.5;"/><text fill="#000000" font-family="sans-serif" font-size="14" lengthAdjust="spacingAndGlyphs" textLength="26" x="153.8848" y="225.7793">help</text><!--MD5=[92848cbaf65985a669855153c5362c37]
entity customer--><ellipse cx="34" cy="107.5" fill="#F8F8F8" filter="url(#f1hg58kfrprehi)" rx="8" ry="8" style="stroke: #383838; stroke-width: 1.5;"/><path d="M34,115.5 L34,142.5 M21,123.5 L47,123.5 M34,142.5 L21,157.5 M34,142.5 L47,157.5 " fill="none" filter="url(#f1hg58kfrprehi)" style="stroke: #383838; stroke-width: 1.5;"/><text fill="#000000" font-family="sans-serif" font-size="14" lengthAdjust="spacingAndGlyphs" textLength="56" x="6" y="176.9999">customer</text><!--MD5=[ebeabf449828f4e0b33bbb47961e644b]
entity clerk--><ellipse cx="286.5" cy="107.5" fill="#F8F8F8" filter="url(#f1hg58kfrprehi)" rx="8" ry="8" style="stroke: #383838; stroke-width: 1.5;"/><path d="M286.5,115.5 L286.5,142.5 M273.5,123.5 L299.5,123.5 M286.5,142.5 L273.5,157.5 M286.5,142.5 L299.5,157.5 " fill="none" filter="url(#f1hg58kfrprehi)" style="stroke: #383838; stroke-width: 1.5;"/><text fill="#000000" font-family="sans-serif" font-size="14" lengthAdjust="spacingAndGlyphs" textLength="29" x="272" y="176.9999">clerk</text><!--MD5=[852381a7bb976b86080137fb6d718ea9]
link customer to checkout--><path d="M62.14,139 C80.28,139 104.47,139 124.95,139 " fill="none" id="customer-checkout" style="stroke: #383838; stroke-width: 1.0;"/><!--MD5=[3ad5c6d5c608bfd6b87dc9c07c40a15f]
link checkout to payment--><path d="M167,123.96 C167,110.87 167,91.77 167,77.32 " fill="none" id="checkout-&gt;payment" style="stroke: #383838; stroke-width: 1.0; stroke-dasharray: 7.0,7.0;"/><polygon fill="#383838" points="167,72.22,163,81.22,167,77.22,171,81.22,167,72.22" style="stroke: #383838; stroke-width: 1.0;"/><text fill="#000000" font-family="sans-serif" font-size="13" lengthAdjust="spacingAndGlyphs" textLength="41" x="135" y="103.5">include</text><!--MD5=[739e7928149c8fe27c2b5850560351c7]
link help to checkout--><path d="M167,205.96 C167,192.87 167,173.77 167,159.32 " fill="none" id="help-&gt;checkout" style="stroke: #383838; stroke-width: 1.0; stroke-dasharray: 7.0,7.0;"/><polygon fill="#383838" points="167,154.22,163,163.22,167,159.22,171,163.22,167,154.22" style="stroke: #383838; stroke-width: 1.0;"/><text fill="#000000" font-family="sans-serif" font-size="13" lengthAdjust="spacingAndGlyphs" textLength="44" x="133.5" y="185.5">extends</text><!--MD5=[b4c4ee8f2d94c159d2b9e04bd372cbe0]
link checkout to clerk--><path d="M209.1,139 C231.07,139 256.67,139 271.96,139 " fill="none" id="checkout-clerk" style="stroke: #383838; stroke-width: 1.0;"/><!--MD5=[7e74d27013ee44282808bca9184c5d8c]
@startuml
left to right direction
skinparam packageStyle rectangle
skinparam monochrome true
actor customer
actor clerk
rectangle checkout {
  customer - - (checkout)
  (checkout) .> (payment) : include
  (help) .> (checkout) : extends
  (checkout) - - clerk
}
@enduml

PlantUML version 1.2020.15(Sun Jun 28 11:39:45 GMT 2020)
(GPL source distribution)
Java Runtime: OpenJDK Runtime Environment
JVM: OpenJDK 64-Bit Server VM
Default Encoding: UTF-8
Language: en
Country: US
--></g></svg>