<svg class="bob" font-family="arial" font-size="14" height="160" width="392" xmlns="http://www.w3.org/2000/svg">
<defs>
<marker id="triangle" markerHeight="8" markerWidth="8" orient="auto" refX="4" refY="2" viewBox="0 0 8 4">
<polygon class="fg_fill" points="0,0 0,4 8,2 0,0"/>
</marker>
<marker id="clear_triangle" markerHeight="10" markerWidth="10" orient="auto" refX="1" refY="7" viewBox="0 0 20 14">
<polygon class="bg_fill" points="2,2 2,12 18,7 2,2"/>
</marker>
<marker id="circle" markerHeight="5" markerWidth="5" orient="auto" refX="10" refY="10" viewBox="0 0 20 20">
<circle class="fg_fill" cx="10" cy="10" r="8"/>
</marker>
<marker id="square" markerHeight="5" markerWidth="5" orient="auto" refX="10" refY="10" viewBox="0 0 20 20">
<rect class="fg_fill" height="20" width="20" x="0" y="0"/>
</marker>
<marker id="open_circle" markerHeight="10" markerWidth="10" orient="auto" refX="10" refY="10" viewBox="0 0 20 20">
<circle class="bg_fill" cx="10" cy="10" r="4"/>
</marker>
<marker id="big_open_circle" markerHeight="20" markerWidth="20" orient="auto" refX="20" refY="20" viewBox="0 0 40 40">
<circle class="bg_fill" cx="20" cy="20" r="6"/>
</marker>
</defs>
<style type="text/css">

rect.backdrop {
    fill: white;
}
text{
    fill: black;
}

circle {
    fill: none;
    stroke: black;
    stroke-width: 2;
}

line {
    stroke: black;
    stroke-width: 2;
    stroke-opacity: 1;
    fill-opacity: 1;
    stroke-linecap: round;
    stroke-linejoin: miter;
}

path {
    fill: none;
    stroke: black;
    stroke-width: 2;
    stroke-opacity: 1;
    fill-opacity: 1;
    stroke-linecap: round;
    stroke-linejoin: miter;
}

line.dashed {
    stroke-dasharray: 5;
}

.fg_fill {
    fill: black;
}


.bg_fill {
    fill: white;
    stroke: black;
    stroke-width: 2;
}

tspan.head{
    fill: none;
    stroke: none;
}
    
</style>
<rect class="backdrop" height="160" width="392" x="0" y="0"/>
<g>
<line x1="16" x2="24" y1="64" y2="48"/>
</g>
<g>
<line x1="20" x2="20" y1="32" y2="48"/>
<line x1="20" x2="52" y1="48" y2="48"/>
<line x1="24" x2="20" y1="32" y2="32"/>
<line x1="24" x2="52" y1="32" y2="32"/>
<line x1="52" x2="52" y1="32" y2="48"/>
</g>
<g>
<line x1="40" x2="48" y1="64" y2="48"/>
</g>
<g>
<line x1="60" x2="60" y1="32" y2="48"/>
<line x1="60" x2="64" y1="32" y2="32"/>
<line x1="60" x2="60" y1="48" y2="64"/>
<line x1="64" x2="72" y1="32" y2="32"/>
<line x1="72" x2="76" y1="32" y2="32"/>
<line x1="72" x2="60" y1="64" y2="64"/>
<line x1="76" x2="76" y1="32" y2="48"/>
<line x1="76" x2="76" y1="48" y2="64"/>
</g>
<g>
<line x1="64" x2="72" y1="38" y2="38"/>
</g>
<g>
<line x1="64" x2="72" y1="42" y2="42"/>
</g>
<g>
<line x1="64" x2="72" y1="64" y2="64"/>
<line x1="64" x2="76" y1="64" y2="64"/>
</g>
<g>
<line marker-end="url(#triangle)" x1="88" x2="108" y1="40" y2="40"/>
</g>
<g>
<line x1="120" x2="122" y1="48" y2="52"/>
<path d="M 120 32 A 16 16 0 0 0 120 48"/>
<path d="M 122 52 A 8 8 0 0 0 128 56"/>
</g>
<g>
<line x1="122" x2="120" y1="28" y2="32"/>
<path d="M 128 24 A 8 8 0 0 0 122 28"/>
</g>
<g>
<line x1="128" x2="136" y1="24" y2="24"/>
</g>
<g>
<line x1="128" x2="136" y1="56" y2="56"/>
</g>
<g>
<line x1="144" x2="146" y1="64" y2="68"/>
<path d="M 144 48 A 16 16 0 0 0 144 64"/>
<path d="M 146 68 A 8 8 0 0 0 152 72"/>
</g>
<g>
<line x1="146" x2="144" y1="12" y2="16"/>
<path d="M 144 16 A 16 16 0 0 0 144 32"/>
<path d="M 152 8 A 8 8 0 0 0 146 12"/>
</g>
<g>
<line x1="152" x2="160" y1="8" y2="8"/>
<path d="M 164 12 A 4 4 0 0 0 160 8"/>
</g>
<g>
<line x1="152" x2="160" y1="72" y2="72"/>
<path d="M 164 76 A 4 4 0 0 0 160 72"/>
</g>
<g>
<line x1="200" x2="208" y1="72" y2="72"/>
<path d="M 200 72 A 4 4 0 0 0 196 76"/>
<path d="M 208 72 A 4 4 0 0 0 212 68"/>
</g>
<g>
<line x1="208" x2="216" y1="8" y2="8"/>
<path d="M 208 8 A 4 4 0 0 0 204 12"/>
<path d="M 222 12 A 8 8 0 0 0 216 8"/>
</g>
<g>
<line x1="208" x2="218" y1="80" y2="100"/>
<path d="M 218 100 A 8 8 0 0 0 224 104"/>
</g>
<g>
<line x1="222" x2="224" y1="12" y2="16"/>
<path d="M 224 32 A 16 16 0 0 0 224 16"/>
</g>
<g>
<line marker-end="url(#triangle)" x1="224" x2="252" y1="104" y2="104"/>
</g>
<g>
<line x1="232" x2="240" y1="24" y2="24"/>
<path d="M 246 28 A 8 8 0 0 0 240 24"/>
</g>
<g>
<line x1="240" x2="248" y1="56" y2="56"/>
<path d="M 240 56 A 4 4 0 0 0 236 60"/>
<path d="M 248 56 A 4 4 0 0 0 252 52"/>
</g>
<g>
<line x1="246" x2="248" y1="28" y2="32"/>
<path d="M 248 48 A 16 16 0 0 0 248 32"/>
</g>
<g>
<line x1="256" x2="260" y1="144" y2="136"/>
<line x1="260" x2="260" y1="112" y2="136"/>
</g>
<g>
<line x1="260" x2="260" y1="96" y2="112"/>
<line x1="260" x2="264" y1="96" y2="96"/>
<line x1="264" x2="296" y1="96" y2="96"/>
<line x1="296" x2="300" y1="96" y2="96"/>
<line x1="300" x2="300" y1="96" y2="112"/>
<line x1="300" x2="300" y1="112" y2="136"/>
</g>
<g>
<line marker-end="url(#triangle)" x1="264" x2="292" y1="56" y2="56"/>
</g>
<g>
<line x1="264" x2="296" y1="128" y2="128"/>
</g>
<g>
<line x1="272" x2="260" y1="128" y2="128"/>
</g>
<g>
<line x1="288" x2="300" y1="128" y2="128"/>
</g>
<g>
<line x1="296" x2="300" y1="144" y2="136"/>
</g>
<g>
<line x1="300" x2="300" y1="48" y2="64"/>
<line x1="300" x2="312" y1="64" y2="64"/>
<line x1="304" x2="300" y1="48" y2="48"/>
<line x1="304" x2="384" y1="48" y2="48"/>
<line x1="314" x2="312" y1="60" y2="64"/>
<line x1="384" x2="388" y1="48" y2="48"/>
<line x1="388" x2="388" y1="48" y2="64"/>
<line x1="388" x2="384" y1="64" y2="64"/>
</g>
<g>
<line x1="316" x2="316" y1="96" y2="112"/>
<line x1="316" x2="320" y1="96" y2="96"/>
<line x1="316" x2="316" y1="112" y2="144"/>
<line x1="316" x2="340" y1="144" y2="144"/>
<line x1="320" x2="336" y1="96" y2="96"/>
<line x1="336" x2="340" y1="96" y2="96"/>
<line x1="340" x2="340" y1="96" y2="112"/>
<line x1="340" x2="340" y1="112" y2="144"/>
</g>
<g>
<line x1="320" x2="336" y1="102" y2="102"/>
</g>
<g>
<line x1="320" x2="336" y1="106" y2="106"/>
</g>
<g>
<line x1="320" x2="336" y1="144" y2="144"/>
</g>
<g>
<line x1="334" x2="336" y1="60" y2="64"/>
<line x1="336" x2="352" y1="64" y2="64"/>
<line x1="354" x2="352" y1="60" y2="64"/>
</g>
<g>
<line class="dashed" x1="28" x2="28" y1="48" y2="64"/>
</g>
<g>
<line class="dashed" x1="36" x2="36" y1="48" y2="64"/>
</g>
<g>
<line class="dashed" x1="268" x2="268" y1="128" y2="144"/>
</g>
<g>
<line class="dashed" x1="276" x2="276" y1="128" y2="144"/>
</g>
<g>
<line class="dashed" x1="284" x2="284" y1="128" y2="144"/>
</g>
<g>
<line class="dashed" x1="292" x2="292" y1="128" y2="144"/>
</g>
<g>
<path d="M 176 0 A 16 16 0 0 0 176 16"/>
</g>
<g>
<path d="M 176 64 A 16 16 0 0 0 176 80"/>
</g>
<g>
<path d="M 184 80 A 16 16 0 0 0 184 64"/>
</g>
<g>
<path d="M 192 16 A 16 16 0 0 0 192 0"/>
</g>
<g>
<path d="M 224 64 A 16 16 0 0 0 224 48"/>
</g>
<g>
<text x="321" y="60">
.
</text>
</g>
<g>
<text x="361" y="60">
..°
</text>
</g>
</svg>
